<?xml version="1.0" encoding="utf-8"?>
<!-- Generator: Adobe Illustrator 26.3.1, SVG Export Plug-In . SVG Version: 6.00 Build 0)  -->
<svg version="1.1" id="svg3314" xmlns:svg="http://www.w3.org/2000/svg"
	 xmlns="http://www.w3.org/2000/svg" xmlns:xlink="http://www.w3.org/1999/xlink" x="0px" y="0px" viewBox="0 0 516.8 802"
	 style="enable-background:new 0 0 516.8 802;" xml:space="preserve">
<style type="text/css">
	.st0{fill:#FFFFFF;}
	.st1{opacity:0.6;fill:#010101;enable-background:new    ;}
	.st2{opacity:0.45;fill:#010101;enable-background:new    ;}
	.st3{opacity:0.8;fill:#010101;enable-background:new    ;}
</style>
<g>
	<polygon class="st0" points="144.8,624.2 23.6,453.4 23.6,405.8 258.3,16.2 493.1,405.8 493.3,453.4 258.3,784.2 	"/>
	<path class="st0" d="M258.3,30.7l209.6,347.7l17.7,29.4l0.1,43.1L365.8,619.9L258.3,771.3L150.9,619.9L31.1,451v-43.1l17.7-29.4
		L258.3,30.7 M258.3,1.7L245.5,23L35.9,370.7l-17.7,29.4l-2.2,3.6v4.2V451v4.8l2.8,3.9l119.9,168.9l107.4,151.4l12.2,17.2l12.2-17.2
		l107.5-151.4L498,459.7l2.8-3.9l0-4.8l-0.1-43.1l0-4.1l-2.1-3.6l-17.7-29.4L271.2,23L258.3,1.7L258.3,1.7z"/>
</g>
<path id="path3078" class="st1" d="M258.3,304.6L31.1,407.9l227.3,134.4l227.3-134.4L258.3,304.6z"/>
<path id="path3094" class="st2" d="M31.1,407.9l227.3,134.4V304.6V30.7L31.1,407.9z"/>
<path id="path3110" class="st3" d="M258.3,30.7v273.8v237.7l227.3-134.4L258.3,30.7z"/>
<path id="path3126" class="st2" d="M31.1,451l227.3,320.3v-186L31.1,451z"/>
<path id="path3142" class="st3" d="M258.3,585.3v186L485.8,451L258.3,585.3z"/>
</svg>
