<?xml version="1.0" encoding="utf-8"?>
<!-- Generator: Adobe Illustrator 26.3.1, SVG Export Plug-In . SVG Version: 6.00 Build 0)  -->
<svg version="1.1" id="Main" xmlns="http://www.w3.org/2000/svg" xmlns:xlink="http://www.w3.org/1999/xlink" x="0px" y="0px"
	 viewBox="0 0 492 629.1" style="enable-background:new 0 0 492 629.1;" xml:space="preserve">
<style type="text/css">
	.st0{fill:#FFFFFF;}
	.st1{fill:#121221;}
	.st2{fill:#366CE1;}
</style>
<g>
	<path class="st0" d="M163.5,519.5v10l-60-60v31L90.4,486c-33.5-37.2-51.9-85.2-51.9-135.2V128.9l1.5-2
		c31.8-42.3,74.3-72.4,126.6-89.4c38.9-12.6,70.6-13.6,79.4-13.6c52.9,0,102.5,16,147.5,47.6c33.5,23.5,53.3,48.3,58.5,55.4l1.5,2
		v221.9c0,50-18.4,98.1-51.9,135.2l-13.1,14.5v-31l-60,60v-10L246,602L163.5,519.5z"/>
	<path class="st0" d="M246,31.4c122.5,0,192.5,90,200,100v219.4c0,48.1-17.8,94.5-50,130.2v-30c-2.3,2.5-4.6,5-7,7.4l-53,53v-10
		l-90,90l-90-90v10l-53-53c-2.4-2.4-4.7-4.9-7-7.4v30c-32.2-35.7-50-82.1-50-130.2V131.4C119.5,33.4,233.6,31.4,246,31.4 M246,16.4
		c-9.1,0-41.8,1-81.7,14c-23.7,7.7-45.9,18.3-66,31.5C73.5,78.1,51.9,98.5,34,122.4l-3,4v5v219.4c0,51.9,19.1,101.7,53.9,140.3
		l26.1,29v-32.5l34.4,34.4l25.6,25.6v-10l64.4,64.4l10.6,10.6l10.6-10.6l64.4-64.4v10l25.6-25.6l34.4-34.4V520l26.1-29
		c34.7-38.5,53.9-88.4,53.9-140.3V131.4v-5l-3-4c-5.4-7.3-25.9-32.8-60.2-57C377.4,51,355.6,39.6,333,31.5
		C305.1,21.4,275.8,16.4,246,16.4L246,16.4z"/>
</g>
<path class="st1" d="M276,271.4c20-23.3,40-46.7,60-70v300l-90,90l-90-90v-300c20,23.3,40,46.7,60,70v150h60V271.4z"/>
<path class="st1" d="M446,131.4v219.4c0,48.1-17.8,94.5-50,130.2V161.4h-60l-90,112.5l-90-112.5H96V481c-32.2-35.7-50-82.1-50-130.2
	V131.4c73.5-98,187.5-100,200-100C368.5,31.4,438.5,121.4,446,131.4z"/>
<path class="st2" d="M396,131.4V451c-2.3,2.5-4.6,5-7,7.4l-53,53v-300c-20,23.3-40,46.7-60,70v150h-60v-150c-20-23.3-40-46.7-60-70
	v300l-53-53c-2.4-2.4-4.7-4.9-7-7.4V131.4h60l90,112.5l90-112.5H396z"/>
</svg>
