<?xml version="1.0" encoding="utf-8"?>
<!-- Generator: Adobe Illustrator 26.3.1, SVG Export Plug-In . SVG Version: 6.00 Build 0)  -->
<svg version="1.1" id="Layer_1" xmlns="http://www.w3.org/2000/svg" xmlns:xlink="http://www.w3.org/1999/xlink" x="0px" y="0px"
	 viewBox="0 0 308 450" style="enable-background:new 0 0 308 450;" xml:space="preserve">
<style type="text/css">
	.st0{fill:#FFFFFF;}
	.st1{opacity:0.45;enable-background:new    ;}
	.st2{opacity:0.6;enable-background:new    ;}
	.st3{opacity:0.8;enable-background:new    ;}
</style>
<g>
	<polygon class="st0" points="86,430.8 22.2,317.2 18.5,317.2 18.5,137.5 85.4,18.5 221.9,18.5 288.8,137.5 289.5,311.7 
		222.5,430.8 	"/>
	<path class="st0" d="M217.5,26l63.8,113.5l0.7,170.2l-63.9,113.5H90.4L26.6,309.7H26V139.5L89.8,26H217.5 M226.3,11h-8.8H89.8H81
		l-4.3,7.6L12.9,132.2l-1.9,3.4v3.9v170.2l0,0l0,0l66.4,120.9l4.3,7.6h8.8h127.7h8.8l4.3-7.6l63.9-113.5l1.9-3.5l0-4l-0.7-170.2
		l0-3.9l-1.9-3.4L230.6,18.6L226.3,11L226.3,11z"/>
</g>
<g>
	<polyline class="st1" points="217.5,26 153.6,139.5 26,139.5 89.8,26 217.5,26 	"/>
	<polygon class="st2" points="153.6,139.5 281.3,139.5 217.5,26 89.8,26 	"/>
	<polygon class="st3" points="89.8,253 153.6,139.5 89.8,26 26,139.5 	"/>
	<polyline class="st1" points="90.4,423.2 154.3,309.7 282,309.7 218.1,423.2 90.4,423.2 	"/>
	<polygon class="st2" points="154.3,309.7 26.6,309.7 90.4,423.3 218.1,423.3 	"/>
	<polygon class="st3" points="218.1,196.3 154.3,309.7 218.1,423.3 282,309.7 	"/>
</g>
</svg>
